<?xml version="1.0" standalone="no"?>
<!DOCTYPE svg PUBLIC "-//W3C//DTD SVG 20010904//EN"
 "http://www.w3.org/TR/2001/REC-SVG-20010904/DTD/svg10.dtd">
<svg version="1.0" xmlns="http://www.w3.org/2000/svg"
 width="700.000000pt" height="700.000000pt" viewBox="0 0 700.000000 700.000000"
 preserveAspectRatio="xMidYMid meet">
<metadata>
Created by potrace 1.14, written by Peter Selinger 2001-2017
</metadata>
<g transform="translate(0.000000,700.000000) scale(0.100000,-0.100000)"
fill="#000000" stroke="none">
<path d="M3250 6991 c-49 -16 -87 -40 -123 -80 -70 -77 -70 -80 -69 -423 l2
-307 -58 -11 c-350 -73 -667 -236 -881 -453 -242 -247 -404 -573 -448 -902
-17 -130 -8 -403 16 -507 5 -21 7 -38 5 -38 -3 0 0 -8 5 -17 5 -10 11 -32 14
-49 7 -44 78 -219 120 -294 108 -197 299 -406 502 -552 186 -133 518 -302 910
-463 134 -54 185 -76 233 -97 24 -10 62 -26 85 -35 156 -62 418 -211 493 -280
108 -99 149 -255 90 -344 -29 -43 -88 -90 -138 -109 -18 -6 -42 -16 -53 -21
-19 -8 -92 -28 -125 -34 -44 -8 -107 -19 -125 -21 -192 -25 -600 -24 -792 2
-291 38 -520 90 -733 165 -179 64 -225 70 -300 44 -94 -33 -158 -112 -180
-220 -5 -28 -11 -59 -14 -70 -2 -11 -20 -96 -40 -190 -20 -93 -39 -181 -42
-195 -3 -14 -7 -36 -10 -50 -2 -14 -14 -68 -25 -120 -26 -123 -26 -176 1 -236
36 -84 98 -134 192 -158 116 -31 454 -91 623 -111 17 -2 50 -6 75 -9 25 -3 74
-8 110 -11 36 -3 79 -7 95 -10 27 -4 122 -10 313 -20 35 -1 65 -4 67 -6 2 -3
5 -130 7 -284 4 -268 5 -282 27 -328 29 -60 91 -113 155 -132 74 -22 600 -22
675 1 83 24 151 95 176 182 4 13 7 160 6 325 l0 302 118 32 c489 132 818 361
1030 719 95 162 174 405 196 604 3 30 8 69 10 85 6 46 6 315 0 360 -18 129
-56 286 -90 360 -54 123 -73 160 -122 235 -251 384 -612 634 -1348 935 -104
42 -228 93 -275 112 -161 67 -369 165 -452 215 -151 90 -190 144 -194 274 -3
74 -1 85 25 125 33 52 88 91 169 118 93 32 142 41 287 56 54 6 333 6 420 0 86
-5 187 -15 212 -19 10 -2 46 -8 78 -12 33 -4 62 -8 65 -9 3 -1 25 -5 50 -9 25
-5 53 -10 62 -12 60 -11 265 -70 360 -104 124 -44 178 -51 251 -31 56 16 127
75 153 128 10 21 55 209 100 418 89 413 95 465 56 541 -26 52 -74 98 -126 122
-50 23 -220 65 -376 91 -110 19 -153 25 -257 36 -27 3 -57 7 -68 9 -11 3 -69
8 -130 12 -60 4 -121 8 -135 9 -14 2 -35 3 -47 4 l-22 1 0 279 c1 264 -1 282
-21 328 -26 58 -60 96 -120 131 l-45 27 -315 2 c-173 1 -326 -2 -340 -6z m593
-240 c9 -9 12 -99 12 -334 0 -237 4 -330 13 -353 19 -46 62 -66 151 -70 132
-5 342 -20 406 -29 17 -2 53 -7 80 -10 179 -21 406 -65 503 -96 33 -11 34 -12
28 -55 -3 -24 -7 -48 -9 -52 -3 -4 -8 -24 -11 -44 -3 -20 -15 -77 -25 -125
-11 -48 -22 -100 -25 -115 -13 -63 -17 -83 -31 -142 -8 -33 -16 -74 -19 -90
-16 -90 -29 -136 -40 -145 -9 -8 -36 -2 -97 20 -227 83 -473 141 -709 165 -25
2 -56 7 -70 10 -14 3 -144 7 -290 9 -258 3 -353 -5 -525 -40 -148 -30 -304
-117 -373 -209 -69 -92 -92 -172 -87 -300 13 -319 176 -451 935 -756 656 -264
952 -430 1189 -670 186 -189 294 -388 346 -635 18 -85 24 -316 11 -415 -4 -30
-9 -75 -12 -100 -9 -78 -64 -270 -101 -354 -37 -83 -118 -214 -169 -275 -191
-229 -495 -395 -869 -476 -65 -14 -130 -33 -145 -42 -54 -31 -54 -30 -55 -415
-1 -197 -4 -361 -8 -364 -9 -9 -531 -9 -545 0 -9 5 -12 95 -12 327 0 346 -3
371 -54 404 -26 17 -44 19 -281 30 -77 3 -158 8 -180 10 -41 4 -143 14 -225
21 -85 7 -229 26 -330 44 -30 5 -71 12 -90 15 -130 21 -308 59 -327 71 l-21
13 24 110 c13 60 25 120 28 133 3 19 18 92 21 108 1 3 7 30 13 60 7 30 14 64
16 75 3 11 14 65 26 120 11 55 22 109 24 119 6 41 28 40 181 -12 201 -68 446
-128 595 -147 30 -4 57 -8 60 -10 3 -2 37 -6 75 -10 39 -4 79 -9 90 -11 115
-22 662 -21 778 2 10 2 38 5 62 8 23 3 64 10 91 16 27 7 58 13 68 16 168 34
356 149 419 257 105 180 64 430 -101 608 -135 146 -360 268 -897 486 -548 223
-855 396 -1066 603 -93 91 -184 203 -227 278 -58 103 -122 265 -137 352 -4 19
-11 58 -15 85 -10 53 -6 350 4 400 4 17 9 44 12 60 18 94 67 223 125 334 209
399 555 636 1067 731 57 10 115 26 129 35 49 32 51 54 49 418 -1 185 0 341 3
346 9 14 42 16 294 15 169 -1 242 -5 250 -13z"/>
</g>
</svg>
